<svg xmlns="http://www.w3.org/2000/svg" viewBox="0 0 64 64">
  <rect width="64" height="64" fill="#0d0d1e"/>
  <!-- Sol -->
  <rect x="0" y="52" width="64" height="12" fill="#1e1e2e"/>
  <!-- Corps chapelle -->
  <rect x="14" y="30" width="36" height="24" fill="#c8c0b0"/>
  <!-- Toit -->
  <polygon points="10,30 32,10 54,30" fill="#808070"/>
  <!-- Clocher -->
  <rect x="26" y="6" width="12" height="6" fill="#808070"/>
  <polygon points="24,6 32,0 40,6" fill="#606050"/>
  <!-- Croix lumineuse -->
  <rect x="30" y="8" width="4" height="12" fill="#d4a017" opacity="0.9"/>
  <rect x="26" y="12" width="12" height="4" fill="#d4a017" opacity="0.9"/>
  <!-- Rayons croix -->
  <rect x="31" y="7" width="2" height="14" fill="#f0c040"/>
  <rect x="27" y="13" width="10" height="2" fill="#f0c040"/>
  <!-- Fenêtre rosace -->
  <circle cx="32" cy="24" r="5" fill="#1a1a3a"/>
  <circle cx="32" cy="24" r="3" fill="#d4a017" opacity="0.6"/>
  <circle cx="32" cy="24" r="1" fill="#ffffff"/>
  <!-- Porte -->
  <rect x="26" y="42" width="12" height="12" fill="#1a1a2a"/>
  <rect x="26" y="38" width="12" height="6" rx="6" fill="#1a1a2a"/>
  <!-- Lueur dorée -->
  <rect x="0" y="50" width="64" height="2" fill="#d4a017" opacity="0.1"/>
</svg>
